<svg width="480" height="480" viewBox="0 0 480 480" fill="none" xmlns="http://www.w3.org/2000/svg">
<rect width="480" height="480" rx="60" fill="url(#paint0_linear_9_1171)"/>
<path d="M254.019 199C253.905 197.58 253.373 196.472 252.421 195.676C251.483 194.881 250.056 194.483 248.138 194.483C246.917 194.483 245.915 194.632 245.134 194.93C244.367 195.214 243.799 195.605 243.429 196.102C243.06 196.599 242.868 197.168 242.854 197.807C242.826 198.332 242.918 198.808 243.131 199.234C243.358 199.646 243.713 200.023 244.196 200.364C244.679 200.69 245.297 200.989 246.05 201.259C246.803 201.528 247.698 201.77 248.735 201.983L252.314 202.75C254.729 203.261 256.796 203.936 258.515 204.774C260.233 205.612 261.64 206.599 262.733 207.736C263.827 208.858 264.63 210.122 265.141 211.528C265.667 212.935 265.936 214.469 265.951 216.131C265.936 219 265.219 221.429 263.799 223.418C262.378 225.406 260.347 226.919 257.705 227.956C255.077 228.993 251.917 229.511 248.223 229.511C244.431 229.511 241.121 228.95 238.294 227.828C235.482 226.706 233.294 224.98 231.732 222.651C230.184 220.307 229.402 217.31 229.388 213.659H240.638C240.709 214.994 241.043 216.116 241.64 217.026C242.236 217.935 243.074 218.624 244.154 219.092C245.248 219.561 246.547 219.795 248.053 219.795C249.317 219.795 250.375 219.639 251.228 219.327C252.08 219.014 252.726 218.581 253.167 218.027C253.607 217.473 253.834 216.841 253.848 216.131C253.834 215.463 253.614 214.881 253.188 214.384C252.776 213.872 252.094 213.418 251.142 213.02C250.191 212.608 248.905 212.224 247.286 211.869L242.939 210.932C239.076 210.094 236.029 208.695 233.799 206.734C231.583 204.76 230.482 202.068 230.496 198.659C230.482 195.889 231.221 193.467 232.712 191.393C234.218 189.305 236.299 187.679 238.955 186.514C241.625 185.349 244.686 184.767 248.138 184.767C251.661 184.767 254.708 185.357 257.279 186.536C259.85 187.714 261.831 189.376 263.223 191.521C264.63 193.652 265.34 196.145 265.354 199H254.019ZM270.627 241.273V196.273H282.304V201.983H282.559C282.985 200.875 283.61 199.859 284.434 198.936C285.258 197.999 286.281 197.253 287.502 196.699C288.724 196.131 290.145 195.847 291.764 195.847C293.923 195.847 295.975 196.422 297.922 197.572C299.882 198.723 301.473 200.534 302.694 203.006C303.93 205.477 304.548 208.687 304.548 212.636C304.548 216.415 303.958 219.547 302.779 222.033C301.615 224.518 300.052 226.372 298.092 227.594C296.146 228.815 294.008 229.426 291.679 229.426C290.145 229.426 288.774 229.178 287.566 228.68C286.373 228.169 285.35 227.48 284.498 226.614C283.66 225.733 283.014 224.739 282.559 223.631H282.389V241.273H270.627ZM282.133 212.636C282.133 214.227 282.339 215.605 282.751 216.77C283.177 217.92 283.774 218.815 284.541 219.455C285.322 220.08 286.252 220.392 287.332 220.392C288.412 220.392 289.328 220.087 290.081 219.476C290.848 218.851 291.43 217.963 291.828 216.812C292.24 215.648 292.446 214.256 292.446 212.636C292.446 211.017 292.24 209.632 291.828 208.482C291.43 207.317 290.848 206.429 290.081 205.818C289.328 205.193 288.412 204.881 287.332 204.881C286.252 204.881 285.322 205.193 284.541 205.818C283.774 206.429 283.177 207.317 282.751 208.482C282.339 209.632 282.133 211.017 282.133 212.636ZM321.237 185.364V229H309.475V185.364H321.237ZM327.229 229V196.273H338.99V229H327.229ZM333.11 192.864C331.519 192.864 330.155 192.338 329.019 191.287C327.882 190.236 327.314 188.972 327.314 187.494C327.314 186.017 327.882 184.753 329.019 183.702C330.155 182.651 331.519 182.125 333.11 182.125C334.715 182.125 336.078 182.651 337.201 183.702C338.337 184.753 338.905 186.017 338.905 187.494C338.905 188.972 338.337 190.236 337.201 191.287C336.078 192.338 334.715 192.864 333.11 192.864ZM364.5 196.273V204.795H342.938V196.273H364.5ZM347.114 188.432H358.875V218.474C358.875 218.929 358.953 219.312 359.109 219.625C359.266 219.923 359.507 220.151 359.834 220.307C360.161 220.449 360.58 220.52 361.091 220.52C361.446 220.52 361.858 220.477 362.327 220.392C362.81 220.307 363.165 220.236 363.392 220.179L365.097 228.446C364.571 228.602 363.818 228.794 362.838 229.021C361.872 229.249 360.722 229.398 359.386 229.469C356.688 229.611 354.422 229.334 352.589 228.638C350.757 227.928 349.379 226.812 348.456 225.293C347.533 223.773 347.085 221.869 347.114 219.582V188.432ZM234.07 289V245.364H264.752V254.909H245.917V262.409H262.877V271.955H245.917V289H234.07ZM268.577 289V256.273H279.997V262.494H280.338C280.935 260.193 281.879 258.51 283.172 257.445C284.479 256.379 286.006 255.847 287.753 255.847C288.264 255.847 288.768 255.889 289.266 255.974C289.777 256.045 290.267 256.152 290.736 256.294V266.33C290.153 266.131 289.436 265.982 288.584 265.882C287.732 265.783 287 265.733 286.389 265.733C285.239 265.733 284.202 265.996 283.278 266.521C282.369 267.033 281.652 267.757 281.126 268.695C280.601 269.618 280.338 270.705 280.338 271.955V289H268.577ZM308.399 289.597C304.905 289.597 301.893 288.929 299.365 287.594C296.851 286.244 294.912 284.312 293.548 281.798C292.199 279.27 291.524 276.244 291.524 272.722C291.524 269.341 292.206 266.386 293.57 263.858C294.933 261.33 296.858 259.362 299.344 257.956C301.83 256.55 304.763 255.847 308.143 255.847C310.615 255.847 312.852 256.23 314.855 256.997C316.858 257.764 318.57 258.879 319.99 260.342C321.411 261.791 322.504 263.553 323.271 265.626C324.038 267.7 324.422 270.037 324.422 272.636V275.364H295.189V268.886H313.598C313.584 267.949 313.342 267.125 312.874 266.415C312.419 265.69 311.801 265.129 311.02 264.732C310.253 264.32 309.379 264.114 308.399 264.114C307.447 264.114 306.574 264.32 305.778 264.732C304.983 265.129 304.344 265.683 303.861 266.393C303.392 267.104 303.143 267.935 303.115 268.886V275.875C303.115 276.926 303.335 277.864 303.776 278.688C304.216 279.511 304.848 280.158 305.672 280.626C306.496 281.095 307.49 281.33 308.655 281.33C309.464 281.33 310.203 281.216 310.871 280.989C311.553 280.761 312.135 280.435 312.618 280.009C313.101 279.568 313.456 279.043 313.683 278.432H324.422C324.053 280.705 323.179 282.679 321.801 284.355C320.423 286.017 318.598 287.31 316.325 288.233C314.067 289.142 311.425 289.597 308.399 289.597ZM344.903 289.597C341.409 289.597 338.397 288.929 335.869 287.594C333.355 286.244 331.416 284.312 330.052 281.798C328.703 279.27 328.028 276.244 328.028 272.722C328.028 269.341 328.71 266.386 330.074 263.858C331.437 261.33 333.362 259.362 335.848 257.956C338.333 256.55 341.267 255.847 344.647 255.847C347.119 255.847 349.356 256.23 351.359 256.997C353.362 257.764 355.074 258.879 356.494 260.342C357.914 261.791 359.008 263.553 359.775 265.626C360.542 267.7 360.926 270.037 360.926 272.636V275.364H331.693V268.886H350.102C350.088 267.949 349.846 267.125 349.377 266.415C348.923 265.69 348.305 265.129 347.524 264.732C346.757 264.32 345.883 264.114 344.903 264.114C343.951 264.114 343.078 264.32 342.282 264.732C341.487 265.129 340.848 265.683 340.365 266.393C339.896 267.104 339.647 267.935 339.619 268.886V275.875C339.619 276.926 339.839 277.864 340.279 278.688C340.72 279.511 341.352 280.158 342.176 280.626C343 281.095 343.994 281.33 345.159 281.33C345.968 281.33 346.707 281.216 347.375 280.989C348.056 280.761 348.639 280.435 349.122 280.009C349.605 279.568 349.96 279.043 350.187 278.432H360.926C360.556 280.705 359.683 282.679 358.305 284.355C356.927 286.017 355.102 287.31 352.829 288.233C350.571 289.142 347.929 289.597 344.903 289.597Z" fill="black"/>
<path d="M128 224L162.5 193L197 224" stroke="black" stroke-width="48" stroke-linecap="round" stroke-linejoin="round"/>
<path d="M196 256L161.5 287L127 256" stroke="black" stroke-width="48" stroke-linecap="round" stroke-linejoin="round"/>
<defs>
<linearGradient id="paint0_linear_9_1171" x1="0" y1="0" x2="480" y2="480" gradientUnits="userSpaceOnUse">
<stop stop-color="white"/>
<stop offset="1" stop-color="#EFE0E0"/>
</linearGradient>
</defs>
</svg>
