<svg width="480" height="480" viewBox="0 0 480 480" fill="none" xmlns="http://www.w3.org/2000/svg">
<rect width="480" height="480" rx="60" fill="url(#paint0_linear_9_1171)"/>
<path d="M243.61 188.5C243.449 186.488 242.694 184.918 241.346 183.791C240.018 182.664 237.996 182.101 235.279 182.101C233.548 182.101 232.13 182.312 231.023 182.735C229.936 183.137 229.131 183.691 228.608 184.395C228.085 185.099 227.813 185.904 227.793 186.81C227.753 187.554 227.884 188.228 228.186 188.832C228.508 189.416 229.011 189.949 229.695 190.432C230.379 190.895 231.254 191.317 232.321 191.7C233.387 192.082 234.655 192.424 236.124 192.726L241.195 193.812C244.616 194.537 247.544 195.493 249.979 196.68C252.414 197.867 254.406 199.266 255.956 200.876C257.505 202.465 258.642 204.256 259.366 206.249C260.111 208.241 260.493 210.414 260.513 212.768C260.493 216.833 259.477 220.274 257.465 223.092C255.452 225.909 252.575 228.052 248.832 229.521C245.109 230.99 240.632 231.724 235.4 231.724C230.027 231.724 225.338 230.93 221.334 229.34C217.349 227.75 214.25 225.305 212.037 222.005C209.843 218.685 208.737 214.439 208.717 209.267H224.654C224.755 211.159 225.228 212.748 226.073 214.036C226.918 215.324 228.105 216.3 229.634 216.964C231.184 217.628 233.025 217.96 235.158 217.96C236.949 217.96 238.448 217.739 239.656 217.296C240.863 216.853 241.779 216.24 242.403 215.455C243.026 214.67 243.348 213.775 243.369 212.768C243.348 211.823 243.036 210.998 242.433 210.293C241.849 209.569 240.883 208.925 239.535 208.362C238.187 207.778 236.366 207.235 234.072 206.732L227.914 205.403C222.44 204.216 218.124 202.234 214.965 199.457C211.826 196.66 210.266 192.847 210.286 188.017C210.266 184.093 211.312 180.662 213.425 177.724C215.558 174.766 218.506 172.462 222.269 170.812C226.053 169.162 230.389 168.337 235.279 168.337C240.27 168.337 244.586 169.172 248.228 170.842C251.871 172.512 254.678 174.867 256.65 177.905C258.642 180.924 259.648 184.455 259.668 188.5H243.61ZM267.139 248.386V184.636H283.68V192.726H284.042C284.646 191.156 285.531 189.717 286.699 188.409C287.866 187.081 289.315 186.025 291.045 185.24C292.776 184.435 294.788 184.033 297.082 184.033C300.141 184.033 303.049 184.848 305.805 186.478C308.582 188.108 310.836 190.673 312.567 194.175C314.318 197.676 315.193 202.224 315.193 207.818C315.193 213.171 314.358 217.608 312.688 221.13C311.037 224.651 308.824 227.277 306.047 229.008C303.29 230.738 300.262 231.604 296.961 231.604C294.788 231.604 292.846 231.252 291.136 230.547C289.445 229.823 287.997 228.847 286.789 227.619C285.602 226.372 284.686 224.963 284.042 223.393H283.801V248.386H267.139ZM283.439 207.818C283.439 210.072 283.73 212.024 284.314 213.674C284.918 215.304 285.763 216.572 286.85 217.477C287.956 218.363 289.274 218.805 290.804 218.805C292.333 218.805 293.631 218.373 294.698 217.507C295.784 216.622 296.609 215.364 297.173 213.734C297.756 212.084 298.048 210.112 298.048 207.818C298.048 205.524 297.756 203.562 297.173 201.932C296.609 200.282 295.784 199.024 294.698 198.159C293.631 197.274 292.333 196.831 290.804 196.831C289.274 196.831 287.956 197.274 286.85 198.159C285.763 199.024 284.918 200.282 284.314 201.932C283.73 203.562 283.439 205.524 283.439 207.818ZM338.835 169.182V231H322.173V169.182H338.835ZM347.324 231V184.636H363.986V231H347.324ZM355.655 179.807C353.402 179.807 351.47 179.062 349.86 177.573C348.25 176.084 347.445 174.293 347.445 172.2C347.445 170.107 348.25 168.317 349.86 166.827C351.47 165.338 353.402 164.594 355.655 164.594C357.929 164.594 359.861 165.338 361.451 166.827C363.061 168.317 363.866 170.107 363.866 172.2C363.866 174.293 363.061 176.084 361.451 177.573C359.861 179.062 357.929 179.807 355.655 179.807ZM400.125 184.636V196.71H369.578V184.636H400.125ZM375.494 173.528H392.156V216.089C392.156 216.733 392.267 217.276 392.488 217.719C392.71 218.141 393.052 218.463 393.515 218.685C393.977 218.886 394.571 218.987 395.295 218.987C395.799 218.987 396.382 218.926 397.046 218.805C397.73 218.685 398.233 218.584 398.555 218.504L400.97 230.215C400.226 230.437 399.159 230.708 397.771 231.03C396.402 231.352 394.772 231.563 392.881 231.664C389.057 231.865 385.848 231.473 383.252 230.487C380.656 229.481 378.704 227.901 377.396 225.748C376.088 223.595 375.454 220.898 375.494 217.658V173.528ZM215.35 313V251.182H258.816V264.705H232.132V275.33H256.159V288.852H232.132V313H215.35ZM264.234 313V266.636H280.413V275.45H280.896C281.741 272.19 283.079 269.806 284.91 268.297C286.761 266.787 288.925 266.033 291.4 266.033C292.124 266.033 292.839 266.093 293.543 266.214C294.267 266.314 294.962 266.465 295.626 266.667V280.884C294.801 280.602 293.784 280.391 292.577 280.25C291.37 280.109 290.333 280.038 289.468 280.038C287.838 280.038 286.369 280.411 285.061 281.155C283.773 281.88 282.757 282.906 282.012 284.234C281.268 285.542 280.896 287.081 280.896 288.852V313H264.234ZM320.649 313.845C315.699 313.845 311.432 312.899 307.85 311.008C304.289 309.096 301.542 306.359 299.61 302.798C297.698 299.216 296.743 294.929 296.743 289.939C296.743 285.15 297.708 280.964 299.64 277.382C301.572 273.8 304.299 271.013 307.82 269.021C311.342 267.029 315.497 266.033 320.287 266.033C323.788 266.033 326.957 266.576 329.795 267.663C332.632 268.749 335.057 270.329 337.069 272.402C339.082 274.454 340.631 276.949 341.718 279.887C342.804 282.825 343.348 286.136 343.348 289.818V293.682H301.934V284.506H328.014C327.994 283.178 327.652 282.01 326.988 281.004C326.344 279.978 325.468 279.183 324.362 278.62C323.275 278.036 322.037 277.744 320.649 277.744C319.301 277.744 318.063 278.036 316.936 278.62C315.809 279.183 314.904 279.968 314.219 280.974C313.555 281.98 313.203 283.157 313.163 284.506V294.406C313.163 295.895 313.475 297.223 314.099 298.391C314.723 299.558 315.618 300.473 316.785 301.137C317.952 301.801 319.361 302.134 321.011 302.134C322.158 302.134 323.204 301.973 324.15 301.651C325.116 301.329 325.941 300.866 326.625 300.262C327.31 299.638 327.813 298.894 328.135 298.028H343.348C342.824 301.248 341.587 304.045 339.635 306.42C337.683 308.774 335.097 310.605 331.877 311.913C328.678 313.201 324.935 313.845 320.649 313.845ZM372.363 313.845C367.412 313.845 363.146 312.899 359.564 311.008C356.003 309.096 353.256 306.359 351.324 302.798C349.412 299.216 348.456 294.929 348.456 289.939C348.456 285.15 349.422 280.964 351.354 277.382C353.286 273.8 356.013 271.013 359.534 269.021C363.056 267.029 367.211 266.033 372 266.033C375.502 266.033 378.671 266.576 381.509 267.663C384.346 268.749 386.771 270.329 388.783 272.402C390.795 274.454 392.345 276.949 393.432 279.887C394.518 282.825 395.062 286.136 395.062 289.818V293.682H353.648V284.506H379.728C379.708 283.178 379.366 282.01 378.701 281.004C378.057 279.978 377.182 279.183 376.075 278.62C374.989 278.036 373.751 277.744 372.363 277.744C371.014 277.744 369.777 278.036 368.65 278.62C367.523 279.183 366.618 279.968 365.933 280.974C365.269 281.98 364.917 283.157 364.877 284.506V294.406C364.877 295.895 365.189 297.223 365.813 298.391C366.436 299.558 367.332 300.473 368.499 301.137C369.666 301.801 371.075 302.134 372.725 302.134C373.872 302.134 374.918 301.973 375.864 301.651C376.83 301.329 377.655 300.866 378.339 300.262C379.023 299.638 379.526 298.894 379.848 298.028H395.062C394.538 301.248 393.301 304.045 391.349 306.42C389.397 308.774 386.811 310.605 383.591 311.913C380.392 313.201 376.649 313.845 372.363 313.845Z" fill="black"/>
<g clip-path="url(#clip0_9_1171)">
<path d="M93.25 226.875L127 193.125L160.75 226.875" stroke="black" stroke-width="48" stroke-miterlimit="10" stroke-linecap="square"/>
</g>
<g clip-path="url(#clip1_9_1171)">
<path d="M160.75 253.125L127 286.875L93.25 253.125" stroke="black" stroke-width="48" stroke-miterlimit="10" stroke-linecap="square"/>
</g>
<defs>
<linearGradient id="paint0_linear_9_1171" x1="0" y1="0" x2="480" y2="480" gradientUnits="userSpaceOnUse">
<stop stop-color="white"/>
<stop offset="1" stop-color="#EFE0E0"/>
</linearGradient>
<clipPath id="clip0_9_1171">
<rect width="120" height="120" fill="white" transform="translate(67 150)"/>
</clipPath>
<clipPath id="clip1_9_1171">
<rect width="120" height="120" fill="white" transform="matrix(-1 0 0 -1 187 330)"/>
</clipPath>
</defs>
</svg>
