<svg width="108" height="108" viewBox="0 0 108 108" fill="none" xmlns="http://www.w3.org/2000/svg">
<g filter="url(#filter0_d_21426_73)">
<path d="M52.3792 19.4145C53.3078 18.6041 54.6922 18.6041 55.6208 19.4145L64.327 27.0127C64.7327 27.3668 65.2433 27.5783 65.7806 27.6149L77.3096 28.3983C78.5392 28.4819 79.5181 29.4608 79.6017 30.6904L80.3851 42.2194C80.4217 42.7567 80.6332 43.2673 80.9873 43.673L88.5855 52.3792C89.3959 53.3078 89.3959 54.6922 88.5855 55.6208L80.9873 64.327C80.6332 64.7327 80.4217 65.2433 80.3851 65.7806L79.6017 77.3096C79.5181 78.5392 78.5392 79.5181 77.3096 79.6017L65.7806 80.3851C65.2433 80.4217 64.7327 80.6331 64.327 80.9873L55.6208 88.5855C54.6922 89.3959 53.3078 89.3959 52.3792 88.5855L43.673 80.9873C43.2673 80.6331 42.7567 80.4217 42.2194 80.3851L30.6904 79.6017C29.4608 79.5181 28.4819 78.5392 28.3983 77.3096L27.6149 65.7806C27.5783 65.2433 27.3669 64.7327 27.0127 64.327L19.4145 55.6208C18.6041 54.6922 18.6041 53.3078 19.4145 52.3792L27.0127 43.673C27.3669 43.2673 27.5783 42.7567 27.6149 42.2194L28.3983 30.6904C28.4819 29.4608 29.4608 28.4819 30.6904 28.3983L42.2194 27.6149C42.7567 27.5783 43.2673 27.3668 43.673 27.0127L52.3792 19.4145Z" fill="url(#paint0_radial_21426_73)"/>
</g>
<path fill-rule="evenodd" clip-rule="evenodd" d="M40.2668 42.3478C40.7525 41.8841 41.5401 41.8841 42.0259 42.3478L46.0951 46.2325C48.4566 45.0463 51.1462 44.375 54 44.375C56.8538 44.375 59.5434 45.0463 61.9049 46.2325L65.9741 42.3478C66.4599 41.8841 67.2475 41.8841 67.7332 42.3478C68.219 42.8116 68.219 43.5634 67.7332 44.0272L64.0682 47.5261C68.2722 50.4806 71 55.2383 71 60.6042C71 60.7365 70.9983 60.8684 70.995 61H37.005C37.0017 60.8684 37 60.7365 37 60.6042C37 55.2383 39.7278 50.4806 43.9318 47.5261L40.2668 44.0272C39.781 43.5634 39.781 42.8116 40.2668 42.3478ZM47.3659 55.4583C48.2818 55.4583 49.0244 54.7495 49.0244 53.875C49.0244 53.0005 48.2818 52.2917 47.3659 52.2917C46.4499 52.2917 45.7073 53.0005 45.7073 53.875C45.7073 54.7495 46.4499 55.4583 47.3659 55.4583ZM62.2927 53.875C62.2927 54.7495 61.5501 55.4583 60.6341 55.4583C59.7182 55.4583 58.9756 54.7495 58.9756 53.875C58.9756 53.0005 59.7182 52.2917 60.6341 52.2917C61.5501 52.2917 62.2927 53.0005 62.2927 53.875Z" fill="#3CDB83"/>
<g clip-path="url(#clip0_21426_73)">
<path d="M94.5 0H13.5C6.04416 0 0 6.04416 0 13.5V94.5C0 101.956 6.04416 108 13.5 108H94.5C101.956 108 108 101.956 108 94.5V13.5C108 6.04416 101.956 0 94.5 0Z" fill="url(#paint1_linear_21426_73)"/>
<path d="M54.8122 42.4125C54.776 41.9598 54.6061 41.6066 54.3028 41.353C54.004 41.0994 53.5491 40.9728 52.9378 40.9728C52.5483 40.9728 52.2292 41.0202 51.9802 41.1154C51.7356 41.2059 51.5545 41.3305 51.4368 41.4889C51.3191 41.6473 51.2579 41.8284 51.2534 42.0323C51.2444 42.1997 51.2739 42.3513 51.3418 42.4872C51.4143 42.6186 51.5275 42.7386 51.6814 42.8472C51.8353 42.9514 52.0321 43.0464 52.2722 43.1325C52.5121 43.2185 52.7974 43.2954 53.1279 43.3634L54.2689 43.6077C55.0386 43.7709 55.6974 43.986 56.2453 44.253C56.7931 44.5201 57.2413 44.8349 57.5901 45.1971C57.9386 45.5547 58.1944 45.9576 58.3573 46.4061C58.525 46.8543 58.6109 47.3432 58.6154 47.8728C58.6109 48.7875 58.3823 49.5617 57.9296 50.1957C57.4767 50.8296 56.8294 51.3117 55.9872 51.6423C55.1495 51.9728 54.1422 52.1379 52.965 52.1379C51.7561 52.1379 50.701 51.9593 49.8001 51.6015C48.9035 51.2438 48.2062 50.6937 47.7083 49.9512C47.2147 49.2042 46.9658 48.2488 46.9613 47.0851H50.5471C50.5699 47.5108 50.6763 47.8683 50.8664 48.1581C51.0565 48.4479 51.3236 48.6675 51.6676 48.8169C52.0164 48.9663 52.4306 49.041 52.9105 49.041C53.3135 49.041 53.6508 48.9913 53.9226 48.8916C54.1942 48.792 54.4003 48.654 54.5407 48.4774C54.6808 48.3008 54.7533 48.0994 54.758 47.8728C54.7533 47.6602 54.6831 47.4746 54.5474 47.316C54.416 47.1531 54.1987 47.0082 53.8954 46.8815C53.5921 46.7501 53.1823 46.6279 52.6662 46.5147L51.2806 46.2157C50.049 45.9486 49.0779 45.5027 48.3671 44.8779C47.6608 44.2485 47.3098 43.3906 47.3143 42.3039C47.3098 41.421 47.5452 40.649 48.0206 39.9879C48.5005 39.3224 49.1638 38.804 50.0105 38.4327C50.8619 38.0615 51.8375 37.8759 52.9378 37.8759C54.0607 37.8759 55.0318 38.0637 55.8513 38.4395C56.671 38.8152 57.3025 39.3451 57.7462 40.0287C58.1944 40.7079 58.4208 41.5024 58.4253 42.4125H54.8122ZM60.1063 55.8869V41.5431H63.828V43.3634H63.9094C64.0453 43.0101 64.2445 42.6864 64.5073 42.3921C64.7698 42.0933 65.0959 41.8557 65.4851 41.679C65.8746 41.4979 66.3273 41.4075 66.8434 41.4075C67.5317 41.4075 68.186 41.5908 68.8061 41.9576C69.4309 42.3243 69.9381 42.9015 70.3275 43.6894C70.7215 44.4771 70.9184 45.5004 70.9184 46.7591C70.9184 47.9635 70.7305 48.9618 70.3548 49.7543C69.9833 50.5465 69.4854 51.1374 68.8606 51.5268C68.2402 51.9161 67.5589 52.1109 66.8162 52.1109C66.3273 52.1109 65.8903 52.0317 65.5056 51.8731C65.1251 51.7102 64.7993 51.4906 64.5275 51.2143C64.2604 50.9337 64.0543 50.6167 63.9094 50.2635H63.8552V55.8869H60.1063ZM63.7738 46.7591C63.7738 47.2662 63.8392 47.7054 63.9706 48.0767C64.1065 48.4434 64.2967 48.7287 64.5412 48.9324C64.7901 49.1317 65.0866 49.2312 65.4309 49.2312C65.7749 49.2312 66.067 49.134 66.307 48.9391C66.5514 48.74 66.737 48.4569 66.8639 48.0902C66.9951 47.7189 67.0608 47.2752 67.0608 46.7591C67.0608 46.2429 66.9951 45.8015 66.8639 45.4347C66.737 45.0635 66.5514 44.7804 66.307 44.5858C66.067 44.3867 65.7749 44.287 65.4309 44.287C65.0866 44.287 64.7901 44.3867 64.5412 44.5858C64.2967 44.7804 64.1065 45.0635 63.9706 45.4347C63.8392 45.8015 63.7738 46.2429 63.7738 46.7591ZM76.2379 38.066V51.975H72.4889V38.066H76.2379ZM78.1479 51.975V41.5431H81.8968V51.975H78.1479ZM80.0224 40.4566C79.5154 40.4566 79.0807 40.289 78.7185 39.954C78.3562 39.6189 78.1751 39.216 78.1751 38.745C78.1751 38.2741 78.3562 37.8714 78.7185 37.5361C79.0807 37.2011 79.5154 37.0337 80.0224 37.0337C80.534 37.0337 80.9687 37.2011 81.3264 37.5361C81.6887 37.8714 81.8698 38.2741 81.8698 38.745C81.8698 39.216 81.6887 39.6189 81.3264 39.954C80.9687 40.289 80.534 40.4566 80.0224 40.4566ZM90.0281 41.5431V44.2598H83.155V41.5431H90.0281ZM84.4861 39.0438H88.2351V48.6201C88.2351 48.765 88.2601 48.8871 88.3098 48.9868C88.3597 49.0818 88.4367 49.1542 88.5409 49.2042C88.6448 49.2494 88.7785 49.2721 88.9414 49.2721C89.0548 49.2721 89.1859 49.2584 89.3353 49.2312C89.4892 49.2042 89.6024 49.1814 89.6748 49.1634L90.2182 51.7984C90.0508 51.8484 89.8107 51.9093 89.4984 51.9818C89.1904 52.0542 88.8237 52.1017 88.3982 52.1244C87.5378 52.1697 86.8158 52.0815 86.2317 51.8596C85.6476 51.6333 85.2084 51.2778 84.9141 50.7933C84.6198 50.3089 84.4771 49.7021 84.4861 48.9731V39.0438ZM48.4537 70.425V56.516H58.2336V59.5587H52.2297V61.9493H57.6358V64.9917H52.2297V70.425H48.4537ZM59.4526 70.425V59.9931H63.0929V61.9763H63.2016C63.3917 61.2428 63.6928 60.7064 64.1047 60.3669C64.5212 60.0271 65.0081 59.8575 65.565 59.8575C65.7279 59.8575 65.8888 59.871 66.0472 59.8982C66.2101 59.9207 66.3664 59.9547 66.5158 60.0001V63.1989C66.3302 63.1355 66.1014 63.088 65.8298 63.0563C65.5582 63.0246 65.3249 63.0086 65.1303 63.0086C64.7635 63.0086 64.433 63.0925 64.1387 63.2599C63.8489 63.423 63.6203 63.6539 63.4527 63.9527C63.2853 64.247 63.2016 64.5933 63.2016 64.9917V70.425H59.4526ZM72.146 70.6152C71.0322 70.6152 70.0722 70.4023 69.2662 69.9768C68.465 69.5466 67.8469 68.9308 67.4122 68.1296C66.982 67.3236 66.7672 66.3591 66.7672 65.2363C66.7672 64.1588 66.9843 63.2169 67.419 62.411C67.8537 61.605 68.4673 60.978 69.2595 60.5298C70.0519 60.0816 70.9868 59.8575 72.0645 59.8575C72.8523 59.8575 73.5653 59.9796 74.2039 60.2242C74.8422 60.4686 75.3878 60.8241 75.8405 61.2905C76.2934 61.7522 76.6419 62.3136 76.8865 62.9746C77.1309 63.6357 77.2533 64.3806 77.2533 65.2091V66.0785H67.9351V64.0139H73.8031C73.7986 63.7151 73.7217 63.4523 73.5723 63.2259C73.4274 62.9951 73.2303 62.8162 72.9814 62.6895C72.7369 62.5581 72.4583 62.4924 72.146 62.4924C71.8427 62.4924 71.5642 62.5581 71.3106 62.6895C71.057 62.8162 70.8534 62.9928 70.6993 63.2192C70.5499 63.4455 70.4707 63.7104 70.4617 64.0139V66.2414C70.4617 66.5764 70.5319 66.8752 70.6723 67.138C70.8127 67.4006 71.014 67.6065 71.2766 67.7559C71.5392 67.9053 71.8562 67.9802 72.2274 67.9802C72.4855 67.9802 72.7209 67.944 72.9337 67.8715C73.1511 67.7991 73.3367 67.6949 73.4906 67.559C73.6447 67.4186 73.7579 67.2512 73.8304 67.0563H77.2533C77.1354 67.7808 76.8571 68.4102 76.4179 68.9445C75.9787 69.4742 75.3968 69.8862 74.6723 70.1805C73.9525 70.4703 73.1103 70.6152 72.146 70.6152ZM83.7817 70.6152C82.6677 70.6152 81.7078 70.4023 80.9019 69.9768C80.1007 69.5466 79.4826 68.9308 79.0479 68.1296C78.6177 67.3236 78.4026 66.3591 78.4026 65.2363C78.4026 64.1588 78.6199 63.2169 79.0546 62.411C79.4893 61.605 80.1029 60.978 80.8951 60.5298C81.6876 60.0816 82.6225 59.8575 83.7 59.8575C84.4879 59.8575 85.201 59.9796 85.8395 60.2242C86.4778 60.4686 87.0234 60.8241 87.4761 61.2905C87.9288 61.7522 88.2776 62.3136 88.5222 62.9746C88.7665 63.6357 88.8889 64.3806 88.8889 65.2091V66.0785H79.5708V64.0139H85.4388C85.4343 63.7151 85.3573 63.4523 85.2077 63.2259C85.0628 62.9951 84.8659 62.8162 84.6169 62.6895C84.3725 62.5581 84.094 62.4924 83.7817 62.4924C83.4781 62.4924 83.1998 62.5581 82.9462 62.6895C82.6927 62.8162 82.489 62.9928 82.3349 63.2192C82.1855 63.4455 82.1063 63.7104 82.0973 64.0139V66.2414C82.0973 66.5764 82.1675 66.8752 82.3079 67.138C82.4481 67.4006 82.6497 67.6065 82.9122 67.7559C83.1748 67.9053 83.4919 67.9802 83.8631 67.9802C84.1212 67.9802 84.3565 67.944 84.5694 67.8715C84.7867 67.7991 84.9723 67.6949 85.1262 67.559C85.2801 67.4186 85.3933 67.2512 85.4658 67.0563H88.8889C88.771 67.7808 88.4927 68.4102 88.0535 68.9445C87.6143 69.4742 87.0325 69.8862 86.308 70.1805C85.5882 70.4703 84.746 70.6152 83.7817 70.6152Z" fill="black"/>
<mask id="mask0_21426_73" style="mask-type:luminance" maskUnits="userSpaceOnUse" x="15" y="33" width="28" height="28">
<path d="M42.075 33.75H15.075V60.75H42.075V33.75Z" fill="white"/>
</mask>
<g mask="url(#mask0_21426_73)">
<path d="M20.9812 51.0469L28.575 43.4531L36.1687 51.0469" stroke="black" stroke-width="12" stroke-miterlimit="10" stroke-linecap="square"/>
</g>
<mask id="mask1_21426_73" style="mask-type:luminance" maskUnits="userSpaceOnUse" x="15" y="47" width="28" height="28">
<path d="M15.075 74.25H42.075V47.25H15.075V74.25Z" fill="white"/>
</mask>
<g mask="url(#mask1_21426_73)">
<path d="M36.1687 56.9531L28.575 64.5469L20.9812 56.9531" stroke="black" stroke-width="12" stroke-miterlimit="10" stroke-linecap="square"/>
</g>
</g>
<defs>
<filter id="filter0_d_21426_73" x="18.8068" y="18.8068" width="71.3865" height="71.3865" filterUnits="userSpaceOnUse" color-interpolation-filters="sRGB">
<feFlood flood-opacity="0" result="BackgroundImageFix"/>
<feColorMatrix in="SourceAlpha" type="matrix" values="0 0 0 0 0 0 0 0 0 0 0 0 0 0 0 0 0 0 127 0" result="hardAlpha"/>
<feOffset dx="1" dy="1"/>
<feComposite in2="hardAlpha" operator="out"/>
<feColorMatrix type="matrix" values="0 0 0 0 0.196078 0 0 0 0 0.423529 0 0 0 0 0.913725 0 0 0 1 0"/>
<feBlend mode="normal" in2="BackgroundImageFix" result="effect1_dropShadow_21426_73"/>
<feBlend mode="normal" in="SourceGraphic" in2="effect1_dropShadow_21426_73" result="shape"/>
</filter>
<radialGradient id="paint0_radial_21426_73" cx="0" cy="0" r="1" gradientUnits="userSpaceOnUse" gradientTransform="translate(39.25 32.5) rotate(49.4258) scale(57.2696)">
<stop stop-color="#376A80"/>
<stop offset="1" stop-color="#013145"/>
</radialGradient>
<linearGradient id="paint1_linear_21426_73" x1="0" y1="0" x2="108" y2="108" gradientUnits="userSpaceOnUse">
<stop stop-color="white"/>
<stop offset="1" stop-color="#EFE0E0"/>
</linearGradient>
<clipPath id="clip0_21426_73">
<rect width="108" height="108" fill="white"/>
</clipPath>
</defs>
</svg>
